# xmcd CD database file
#
# Track frame offsets:
#	150
#	25128
#	32183
#	50258
#	67980
#	86423
#	107423
#
# Disc length: 2432 seconds
#
# Revision: 0
# Processed by: cddbd v1.5.2PL0 Copyright (c) Steve Scherf et al.
# Submitted via: CDex 1.51
#
DISCID=4b097e07
DTITLE=Sky - Roses in the Sky
DYEAR=1994
DGENRE=New Age
TTITLE0=Newland
TTITLE1=Gentle waves
TTITLE2=When I close my eyes and dream
TTITLE3=Sacred meeting
TTITLE4=On wings of freedom
TTITLE5=Love foreever
TTITLE6=The Meadow
EXTD=YEAR: 1994
EXTT0=
EXTT1=
EXTT2=
EXTT3=
EXTT4=
EXTT5=
EXTT6=
PLAYORDER=
